<?xml version="1.0" encoding="utf-8"?>
<!-- Generator: Adobe Illustrator 27.2.0, SVG Export Plug-In . SVG Version: 6.00 Build 0)  -->
<svg version="1.1" id="Layer_1" xmlns="http://www.w3.org/2000/svg" xmlns:xlink="http://www.w3.org/1999/xlink" x="0px" y="0px"
	 viewBox="0 0 15 13" style="enable-background:new 0 0 15 13;" xml:space="preserve">
<style type="text/css">
	.st0{filter:url(#Adobe_OpacityMaskFilter);}
	.st1{fill-rule:evenodd;clip-rule:evenodd;fill:#FFFFFF;}
	
		.st2{mask:url(#sub_nav_text_decorator-b_00000114789140775396645110000018314945795756608445_);fill-rule:evenodd;clip-rule:evenodd;fill:#BA9653;}
</style>
<g transform="matrix(-1 0 0 1 15 0)">
	<defs>
		<filter id="Adobe_OpacityMaskFilter" filterUnits="userSpaceOnUse">
			<feColorMatrix  type="matrix" values="1 0 0 0 0  0 1 0 0 0  0 0 1 0 0  0 0 0 1 0"/>
		</filter>
	</defs>
	<mask maskUnits="userSpaceOnUse" id="sub_nav_text_decorator-b_00000114789140775396645110000018314945795756608445_">
		<g class="st0">
			<polygon id="sub_nav_text_decorator-a_00000049220978861945791220000013672307312283638935_" class="st1" points="15,13 15,0 
				0,0 0,13 			"/>
		</g>
	</mask>
	<path class="st2" d="M0,6.5c0,0,2.1-0.9,4.1-2.1C6.2,3.2,6.5,2.8,6.7,2c0.2-0.8,0-2,0-2l2.7,0.8C8.1,1.8,8.2,2.9,8.4,4
		c0.2,1.1,1.3,1,1.3,1l1-3.4L15,6.5l-4.2,4.9L9.8,8c0,0-1.2-0.1-1.3,1c-0.2,1.1-0.3,2.2,1.1,3.2L6.7,13c0,0,0.2-1.2,0-2
		c-0.2-0.8-0.5-1.3-2.6-2.4C2.1,7.4,0,6.5,0,6.5"/>
</g>
</svg>
